<?xml version="1.0" encoding="utf-8"?>
<!-- Generator: Adobe Illustrator 19.2.1, SVG Export Plug-In . SVG Version: 6.00 Build 0)  -->
<svg version="1.1" id="Layer_1" xmlns="http://www.w3.org/2000/svg" xmlns:xlink="http://www.w3.org/1999/xlink" x="0px" y="0px"
	 width="20px" height="20px" viewBox="0 0 20 20" style="enable-background:new 0 0 20 20;" xml:space="preserve">
<line style="fill:none;stroke:#808080;stroke-miterlimit:10;" x1="17.7" y1="2.4" x2="18.5" y2="0"/>
<line style="fill:none;stroke:#808080;stroke-miterlimit:10;" x1="0" y1="7.6" x2="5.7" y2="10.3"/>
<line style="fill:none;stroke:#808080;stroke-miterlimit:10;" x1="5.7" y1="10.3" x2="14.4" y2="6.5"/>
<line style="fill:none;stroke:#808080;stroke-miterlimit:10;" x1="13.7" y1="14.3" x2="20" y2="17.5"/>
<line style="fill:none;stroke:#808080;stroke-miterlimit:10;" x1="13.7" y1="14.3" x2="16.7" y2="5.3"/>
<line style="fill:none;stroke:#808080;stroke-miterlimit:10;" x1="11.7" y1="20" x2="13.7" y2="14.3"/>
<line style="fill:none;stroke:#808080;stroke-miterlimit:10;" x1="5.7" y1="10.3" x2="13.7" y2="14.3"/>
<g>
	<circle style="fill:#4EB8D1;" cx="5.7" cy="10.3" r="2.5"/>
	<path style="fill:#4D4D4D;" d="M5.7,8.3c1.1,0,2,0.9,2,2s-0.9,2-2,2s-2-0.9-2-2S4.7,8.3,5.7,8.3 M5.7,7.3c-1.6,0-3,1.3-3,3
		s1.3,3,3,3c1.6,0,3-1.3,3-3S7.4,7.3,5.7,7.3L5.7,7.3z"/>
</g>
<g>
	<circle style="fill:#4EB8D1;" cx="13.7" cy="14.3" r="2.6"/>
	<path style="fill:#4D4D4D;" d="M13.7,12.2c1.1,0,2.1,0.9,2.1,2.1s-0.9,2.1-2.1,2.1c-1.1,0-2.1-0.9-2.1-2.1S12.6,12.2,13.7,12.2
		 M13.7,11.2c-1.7,0-3.1,1.4-3.1,3.1s1.4,3.1,3.1,3.1c1.7,0,3.1-1.4,3.1-3.1S15.4,11.2,13.7,11.2L13.7,11.2z"/>
</g>
<g>
	<circle style="fill:#4EB8D1;" cx="16.7" cy="5.3" r="2.6"/>
	<path style="fill:#4D4D4D;" d="M16.7,3.3c1.1,0,2.1,0.9,2.1,2.1s-0.9,2.1-2.1,2.1c-1.1,0-2.1-0.9-2.1-2.1S15.6,3.3,16.7,3.3
		 M16.7,2.3c-1.7,0-3.1,1.4-3.1,3.1s1.4,3.1,3.1,3.1s3.1-1.4,3.1-3.1S18.4,2.3,16.7,2.3L16.7,2.3z"/>
</g>
</svg>
