<?xml version="1.0" encoding="utf-8"?>
<!-- Generator: Adobe Illustrator 19.2.1, SVG Export Plug-In . SVG Version: 6.00 Build 0)  -->
<svg version="1.1" id="Layer_1" xmlns="http://www.w3.org/2000/svg" xmlns:xlink="http://www.w3.org/1999/xlink" x="0px" y="0px"
	 viewBox="0 0 20 20" style="enable-background:new 0 0 20 20;" xml:space="preserve">
<style type="text/css">
	.st0{fill:#FFFFFF;}
	.st1{fill:none;stroke:#E6E7E8;stroke-miterlimit:10;}
	.st2{fill:#E6E7E8;}
	.st3{fill:#D1D3D4;}
	.st4{fill:none;stroke:#888888;stroke-width:7;stroke-miterlimit:10;}
	.st5{fill:none;stroke:#888888;stroke-width:16;stroke-linecap:round;stroke-miterlimit:10;}
	.st6{fill:none;stroke:#888888;stroke-width:10;stroke-miterlimit:10;}
	.st7{fill:none;stroke:#888888;stroke-width:10;stroke-linecap:round;stroke-linejoin:bevel;stroke-miterlimit:10;}
	.st8{fill:#888888;}
	.st9{fill:#FFFFFF;stroke:#888888;stroke-width:4;stroke-miterlimit:10;}
	.st10{fill:none;stroke:#888888;stroke-width:6;stroke-miterlimit:10;}
	.st11{fill:none;stroke:#888888;stroke-width:5;stroke-linecap:round;stroke-miterlimit:10;}
	.st12{fill:#FFFFFF;stroke:#888888;stroke-width:5;stroke-linecap:round;stroke-miterlimit:10;}
	.st13{fill:none;stroke:#888888;stroke-width:8;stroke-miterlimit:10;}
	.st14{fill:none;stroke:#888888;stroke-width:14;stroke-linecap:round;stroke-linejoin:bevel;stroke-miterlimit:10;}
	.st15{fill:none;stroke:#888888;stroke-width:9;stroke-linecap:round;stroke-linejoin:bevel;stroke-miterlimit:10;}
	.st16{fill:none;stroke:#888888;stroke-width:16;stroke-linecap:round;stroke-linejoin:bevel;stroke-miterlimit:10;}
	.st17{fill:none;stroke:#888888;stroke-width:4;stroke-miterlimit:10;}
	.st18{fill:none;stroke:#888888;stroke-width:2;stroke-linecap:round;stroke-miterlimit:10;}
	.st19{fill:none;stroke:#888888;stroke-width:3;stroke-miterlimit:10;}
	.st20{fill:none;stroke:#888888;stroke-width:3;stroke-linecap:round;stroke-miterlimit:10;}
	.st21{fill:none;stroke:#888888;stroke-width:6;stroke-linecap:round;stroke-miterlimit:10;}
	.st22{fill:none;stroke:#888888;stroke-width:20;stroke-linecap:round;stroke-miterlimit:10;}
	.st23{fill:#FFFFFF;stroke:#888888;stroke-width:6;stroke-linecap:round;stroke-miterlimit:10;}
	.st24{fill:none;stroke:#888888;stroke-width:8;stroke-linecap:round;stroke-miterlimit:10;}
	.st25{fill:none;stroke:#888888;stroke-width:5;stroke-miterlimit:10;}
</style>
<g>
	<g>
		<path class="st8" d="M5,15.4c-1.1,0-2-0.9-2-2v-1.8c0-1.1,0.9-1.9,2-1.9S7,10.5,7,11.6v1.8C7,14.5,6.1,15.4,5,15.4z"/>
		<path class="st8" d="M10.1,15.4c-1.1,0-1.9-0.9-1.9-2V6.9c0-1.1,0.9-1.9,1.9-1.9S12,5.8,12,6.9v6.5C12,14.5,11.2,15.4,10.1,15.4z"
			/>
		<path class="st8" d="M15.1,15.4c-1.1,0-2-0.9-2-2V2.5c0-1.1,0.9-1.9,2-1.9s1.9,0.9,1.9,1.9v10.9C17.1,14.5,16.2,15.4,15.1,15.4z"
			/>
	</g>
	<g>
		<rect x="2.6" y="17" class="st8" width="14.8" height="1.2"/>
		<g>
			<polygon class="st8" points="3.1,19.4 0.2,17.6 3.1,15.7 			"/>
		</g>
		<g>
			<polygon class="st8" points="16.9,19.4 19.8,17.6 16.9,15.7 			"/>
		</g>
	</g>
</g>
</svg>
