<?xml version="1.0" encoding="utf-8"?>
<!-- Generator: Adobe Illustrator 19.2.1, SVG Export Plug-In . SVG Version: 6.00 Build 0)  -->
<svg version="1.1" id="Layer_1" xmlns="http://www.w3.org/2000/svg" xmlns:xlink="http://www.w3.org/1999/xlink" x="0px" y="0px"
	 viewBox="0 0 20 20" style="enable-background:new 0 0 20 20;" xml:space="preserve">
<style type="text/css">
	.st0{fill:#FFFFFF;}
	.st1{fill:none;stroke:#E6E7E8;stroke-miterlimit:10;}
	.st2{fill:#E6E7E8;}
	.st3{fill:#D1D3D4;}
	.st4{fill:none;stroke:#888888;stroke-width:7;stroke-miterlimit:10;}
	.st5{fill:none;stroke:#888888;stroke-width:16;stroke-linecap:round;stroke-miterlimit:10;}
	.st6{fill:none;stroke:#888888;stroke-width:10;stroke-miterlimit:10;}
	.st7{fill:none;stroke:#888888;stroke-width:10;stroke-linecap:round;stroke-linejoin:bevel;stroke-miterlimit:10;}
	.st8{fill:#888888;}
	.st9{fill:#FFFFFF;stroke:#888888;stroke-width:4;stroke-miterlimit:10;}
	.st10{fill:none;stroke:#888888;stroke-width:6;stroke-miterlimit:10;}
	.st11{fill:none;stroke:#888888;stroke-width:5;stroke-linecap:round;stroke-miterlimit:10;}
	.st12{fill:#FFFFFF;stroke:#888888;stroke-width:5;stroke-linecap:round;stroke-miterlimit:10;}
	.st13{fill:none;stroke:#888888;stroke-width:8;stroke-miterlimit:10;}
	.st14{fill:none;stroke:#888888;stroke-width:14;stroke-linecap:round;stroke-linejoin:bevel;stroke-miterlimit:10;}
	.st15{fill:none;stroke:#888888;stroke-width:9;stroke-linecap:round;stroke-linejoin:bevel;stroke-miterlimit:10;}
	.st16{fill:none;stroke:#888888;stroke-width:16;stroke-linecap:round;stroke-linejoin:bevel;stroke-miterlimit:10;}
	.st17{fill:none;stroke:#888888;stroke-width:4;stroke-miterlimit:10;}
	.st18{fill:none;stroke:#888888;stroke-width:2;stroke-linecap:round;stroke-miterlimit:10;}
	.st19{fill:none;stroke:#888888;stroke-width:3;stroke-miterlimit:10;}
	.st20{fill:none;stroke:#888888;stroke-width:3;stroke-linecap:round;stroke-miterlimit:10;}
	.st21{fill:none;stroke:#888888;stroke-width:6;stroke-linecap:round;stroke-miterlimit:10;}
	.st22{fill:none;stroke:#888888;stroke-width:20;stroke-linecap:round;stroke-miterlimit:10;}
	.st23{fill:#FFFFFF;stroke:#888888;stroke-width:6;stroke-linecap:round;stroke-miterlimit:10;}
	.st24{fill:none;stroke:#888888;stroke-width:8;stroke-linecap:round;stroke-miterlimit:10;}
	.st25{fill:none;stroke:#888888;stroke-width:5;stroke-miterlimit:10;}
</style>
<g>
	<g>
		<circle class="st8" cx="13" cy="5.7" r="2.2"/>
		<circle class="st8" cx="5" cy="12.6" r="2.2"/>
		<circle class="st8" cx="15.7" cy="15.8" r="2.2"/>
		<path class="st8" d="M16,16.2L4.4,12.7l9-8.1L16,16.2z M5.7,12.4l9.5,2.9L13,5.8L5.7,12.4z"/>
		<g>
			<path class="st8" d="M13.1,5.9C13.1,5.9,13,5.9,13.1,5.9c-0.3-0.1-0.4-0.2-0.3-0.4l1.3-5c0-0.2,0.2-0.3,0.4-0.2
				c0.2,0,0.3,0.2,0.2,0.4l-1.3,5C13.4,5.8,13.2,5.9,13.1,5.9z"/>
			<path class="st8" d="M18,7.2C18,7.2,18,7.2,18,7.2l-5-1.3c-0.2,0-0.3-0.2-0.2-0.4c0-0.2,0.2-0.3,0.4-0.2l5,1.3
				c0.2,0,0.3,0.2,0.2,0.4C18.3,7.2,18.2,7.2,18,7.2z"/>
			<path class="st8" d="M12.8,5.8C12.8,5.8,12.7,5.8,12.8,5.8l-5-1.3c-0.2,0-0.3-0.2-0.2-0.4c0-0.2,0.2-0.3,0.4-0.2l5,1.3
				c0.2,0,0.3,0.2,0.2,0.4C13.1,5.7,12.9,5.8,12.8,5.8z"/>
		</g>
		<g>
			<path class="st8" d="M19.2,19.7c-0.1,0-0.2,0-0.2-0.1L15.4,16c-0.1-0.1-0.1-0.3,0-0.5c0.1-0.1,0.3-0.1,0.5,0l3.6,3.6
				c0.1,0.1,0.1,0.3,0,0.5C19.4,19.7,19.3,19.7,19.2,19.7z"/>
			<path class="st8" d="M12,19.7c-0.1,0-0.2,0-0.2-0.1c-0.1-0.1-0.1-0.3,0-0.5l3.6-3.6c0.1-0.1,0.3-0.1,0.5,0c0.1,0.1,0.1,0.3,0,0.5
				l-3.6,3.6C12.1,19.7,12,19.7,12,19.7z"/>
			<path class="st8" d="M15.8,15.9c-0.1,0-0.2,0-0.2-0.1c-0.1-0.1-0.1-0.3,0-0.5l3.6-3.6c0.1-0.1,0.3-0.1,0.5,0
				c0.1,0.1,0.1,0.3,0,0.5L16,15.8C16,15.8,15.9,15.9,15.8,15.9z"/>
		</g>
		<g>
			<path class="st8" d="M0.6,15.4c-0.1,0-0.2-0.1-0.3-0.2c-0.1-0.2,0-0.4,0.1-0.4l4.4-2.6c0.2-0.1,0.4,0,0.4,0.1
				c0.1,0.2,0,0.4-0.1,0.4l-4.4,2.6C0.7,15.4,0.6,15.4,0.6,15.4z"/>
			<path class="st8" d="M5,12.9c-0.1,0-0.2-0.1-0.3-0.2L2.2,8.3c-0.1-0.2,0-0.4,0.1-0.4c0.2-0.1,0.4,0,0.4,0.1l2.6,4.4
				c0.1,0.2,0,0.4-0.1,0.4C5.1,12.9,5.1,12.9,5,12.9z"/>
			<path class="st8" d="M7.7,17.6c-0.1,0-0.2-0.1-0.3-0.2L4.9,13c-0.1-0.2,0-0.4,0.1-0.4c0.2-0.1,0.4,0,0.4,0.1L8,17.1
				c0.1,0.2,0,0.4-0.1,0.4C7.8,17.6,7.8,17.6,7.7,17.6z"/>
		</g>
	</g>
</g>
</svg>
