<?xml version="1.0" encoding="utf-8"?>
<!-- Generator: Adobe Illustrator 19.2.1, SVG Export Plug-In . SVG Version: 6.00 Build 0)  -->
<svg version="1.1" id="Layer_1" xmlns="http://www.w3.org/2000/svg" xmlns:xlink="http://www.w3.org/1999/xlink" x="0px" y="0px"
	 viewBox="0 0 20 20" style="enable-background:new 0 0 20 20;" xml:space="preserve">
<style type="text/css">
	.st0{fill:#FFFFFF;}
	.st1{fill:none;stroke:#E6E7E8;stroke-miterlimit:10;}
	.st2{fill:#E6E7E8;}
	.st3{fill:#D1D3D4;}
	.st4{fill:none;stroke:#888888;stroke-width:7;stroke-miterlimit:10;}
	.st5{fill:none;stroke:#888888;stroke-width:16;stroke-linecap:round;stroke-miterlimit:10;}
	.st6{fill:none;stroke:#888888;stroke-width:10;stroke-miterlimit:10;}
	.st7{fill:none;stroke:#888888;stroke-width:10;stroke-linecap:round;stroke-linejoin:bevel;stroke-miterlimit:10;}
	.st8{fill:#888888;}
	.st9{fill:#FFFFFF;stroke:#888888;stroke-width:4;stroke-miterlimit:10;}
	.st10{fill:none;stroke:#888888;stroke-width:6;stroke-miterlimit:10;}
	.st11{fill:none;stroke:#888888;stroke-width:5;stroke-linecap:round;stroke-miterlimit:10;}
	.st12{fill:#FFFFFF;stroke:#888888;stroke-width:5;stroke-linecap:round;stroke-miterlimit:10;}
	.st13{fill:none;stroke:#888888;stroke-width:8;stroke-miterlimit:10;}
	.st14{fill:none;stroke:#888888;stroke-width:14;stroke-linecap:round;stroke-linejoin:bevel;stroke-miterlimit:10;}
	.st15{fill:none;stroke:#888888;stroke-width:9;stroke-linecap:round;stroke-linejoin:bevel;stroke-miterlimit:10;}
	.st16{fill:none;stroke:#888888;stroke-width:16;stroke-linecap:round;stroke-linejoin:bevel;stroke-miterlimit:10;}
	.st17{fill:none;stroke:#888888;stroke-width:4;stroke-miterlimit:10;}
	.st18{fill:none;stroke:#888888;stroke-width:2;stroke-linecap:round;stroke-miterlimit:10;}
	.st19{fill:none;stroke:#888888;stroke-width:3;stroke-miterlimit:10;}
	.st20{fill:none;stroke:#888888;stroke-width:3;stroke-linecap:round;stroke-miterlimit:10;}
	.st21{fill:none;stroke:#888888;stroke-width:6;stroke-linecap:round;stroke-miterlimit:10;}
	.st22{fill:none;stroke:#888888;stroke-width:20;stroke-linecap:round;stroke-miterlimit:10;}
	.st23{fill:#FFFFFF;stroke:#888888;stroke-width:6;stroke-linecap:round;stroke-miterlimit:10;}
	.st24{fill:none;stroke:#888888;stroke-width:8;stroke-linecap:round;stroke-miterlimit:10;}
	.st25{fill:none;stroke:#888888;stroke-width:5;stroke-miterlimit:10;}
</style>
<g>
	<g>
		<g>
			<path class="st8" d="M4.6,4.2H1.5c-0.6,0-1-0.5-1-1V3.1c0-0.6,0.5-1,1-1h3.1c0.6,0,1,0.5,1,1v0.1C5.6,3.7,5.2,4.2,4.6,4.2z"/>
		</g>
		<g>
			<path class="st8" d="M4.6,18H1.5c-0.6,0-1-0.5-1-1v-0.1c0-0.6,0.5-1,1-1h3.1c0.6,0,1,0.5,1,1v0.1C5.6,17.5,5.2,18,4.6,18z"/>
		</g>
		<g>
			<path class="st8" d="M4.6,14.5H1.5c-0.6,0-1-0.5-1-1v-0.1c0-0.6,0.5-1,1-1h3.1c0.6,0,1,0.5,1,1v0.1C5.6,14,5.2,14.5,4.6,14.5z"/>
		</g>
		<g>
			<path class="st8" d="M4.6,11.1H1.5c-0.6,0-1-0.5-1-1V10c0-0.6,0.5-1,1-1h3.1c0.6,0,1,0.5,1,1V10C5.6,10.6,5.2,11.1,4.6,11.1z"/>
		</g>
		<g>
			<path class="st8" d="M4.6,7.6H1.5c-0.6,0-1-0.5-1-1V6.5c0-0.6,0.5-1,1-1h3.1c0.6,0,1,0.5,1,1v0.1C5.6,7.1,5.2,7.6,4.6,7.6z"/>
		</g>
	</g>
	<g>
		<path class="st8" d="M18.9,2.7v0.9H15V2.7H18.9 M19.1,2h-4.3c-0.2,0-0.4,0.2-0.4,0.4v1.3c0,0.2,0.2,0.4,0.4,0.4h4.3
			c0.2,0,0.4-0.2,0.4-0.4V2.5C19.5,2.2,19.3,2,19.1,2L19.1,2z"/>
		<path class="st8" d="M18.9,16.5v0.9H15v-0.9H18.9 M19.1,15.8h-4.3c-0.2,0-0.4,0.2-0.4,0.4v1.3c0,0.2,0.2,0.4,0.4,0.4h4.3
			c0.2,0,0.4-0.2,0.4-0.4v-1.3C19.5,16,19.3,15.8,19.1,15.8L19.1,15.8z"/>
		<path class="st8" d="M18.9,13v0.9H15V13H18.9 M19.1,12.4h-4.3c-0.2,0-0.4,0.2-0.4,0.4v1.3c0,0.2,0.2,0.4,0.4,0.4h4.3
			c0.2,0,0.4-0.2,0.4-0.4v-1.3C19.5,12.6,19.3,12.4,19.1,12.4L19.1,12.4z"/>
		<path class="st8" d="M18.9,9.6v0.9H15V9.6H18.9 M19.1,8.9h-4.3c-0.2,0-0.4,0.2-0.4,0.4v1.3c0,0.2,0.2,0.4,0.4,0.4h4.3
			c0.2,0,0.4-0.2,0.4-0.4V9.4C19.5,9.1,19.3,8.9,19.1,8.9L19.1,8.9z"/>
		<path class="st8" d="M18.9,6.1V7H15V6.1H18.9 M19.1,5.5h-4.3c-0.2,0-0.4,0.2-0.4,0.4v1.3c0,0.2,0.2,0.4,0.4,0.4h4.3
			c0.2,0,0.4-0.2,0.4-0.4V5.9C19.5,5.7,19.3,5.5,19.1,5.5L19.1,5.5z"/>
	</g>
	<g>
		<g>
			<path class="st8" d="M11.5,4.2H8.5c-0.6,0-1-0.5-1-1V3.1c0-0.6,0.5-1,1-1h3.1c0.6,0,1,0.5,1,1v0.1C12.6,3.7,12.1,4.2,11.5,4.2z"
				/>
		</g>
		<g>
			<path class="st8" d="M11.5,18H8.5c-0.6,0-1-0.5-1-1v-0.1c0-0.6,0.5-1,1-1h3.1c0.6,0,1,0.5,1,1v0.1C12.6,17.5,12.1,18,11.5,18z"/>
		</g>
		<g>
			<path class="st8" d="M11.5,14.5H8.5c-0.6,0-1-0.5-1-1v-0.1c0-0.6,0.5-1,1-1h3.1c0.6,0,1,0.5,1,1v0.1C12.6,14,12.1,14.5,11.5,14.5
				z"/>
		</g>
		<g>
			<path class="st8" d="M11.5,11.1H8.5c-0.6,0-1-0.5-1-1V10c0-0.6,0.5-1,1-1h3.1c0.6,0,1,0.5,1,1V10C12.6,10.6,12.1,11.1,11.5,11.1z
				"/>
		</g>
		<g>
			<path class="st8" d="M11.5,7.6H8.5c-0.6,0-1-0.5-1-1V6.5c0-0.6,0.5-1,1-1h3.1c0.6,0,1,0.5,1,1v0.1C12.6,7.1,12.1,7.6,11.5,7.6z"
				/>
		</g>
	</g>
</g>
</svg>
