<?xml version="1.0" encoding="utf-8"?>
<!-- Generator: Adobe Illustrator 19.2.1, SVG Export Plug-In . SVG Version: 6.00 Build 0)  -->
<svg version="1.1" id="Layer_1" xmlns="http://www.w3.org/2000/svg" xmlns:xlink="http://www.w3.org/1999/xlink" x="0px" y="0px"
	 viewBox="0 0 20 20" style="enable-background:new 0 0 20 20;" xml:space="preserve">
<style type="text/css">
	.st0{fill:#FFFFFF;}
	.st1{fill:none;stroke:#E6E7E8;stroke-miterlimit:10;}
	.st2{fill:#E6E7E8;}
	.st3{fill:#D1D3D4;}
	.st4{fill:none;stroke:#888888;stroke-width:7;stroke-miterlimit:10;}
	.st5{fill:none;stroke:#888888;stroke-width:16;stroke-linecap:round;stroke-miterlimit:10;}
	.st6{fill:none;stroke:#888888;stroke-width:10;stroke-miterlimit:10;}
	.st7{fill:none;stroke:#888888;stroke-width:10;stroke-linecap:round;stroke-linejoin:bevel;stroke-miterlimit:10;}
	.st8{fill:#888888;}
	.st9{fill:#FFFFFF;stroke:#888888;stroke-width:4;stroke-miterlimit:10;}
	.st10{fill:none;stroke:#888888;stroke-width:6;stroke-miterlimit:10;}
	.st11{fill:none;stroke:#888888;stroke-width:5;stroke-linecap:round;stroke-miterlimit:10;}
	.st12{fill:#FFFFFF;stroke:#888888;stroke-width:5;stroke-linecap:round;stroke-miterlimit:10;}
	.st13{fill:none;stroke:#888888;stroke-width:8;stroke-miterlimit:10;}
	.st14{fill:none;stroke:#888888;stroke-width:14;stroke-linecap:round;stroke-linejoin:bevel;stroke-miterlimit:10;}
	.st15{fill:none;stroke:#888888;stroke-width:9;stroke-linecap:round;stroke-linejoin:bevel;stroke-miterlimit:10;}
	.st16{fill:none;stroke:#888888;stroke-width:16;stroke-linecap:round;stroke-linejoin:bevel;stroke-miterlimit:10;}
	.st17{fill:none;stroke:#888888;stroke-width:4;stroke-miterlimit:10;}
	.st18{fill:none;stroke:#888888;stroke-width:2;stroke-linecap:round;stroke-miterlimit:10;}
	.st19{fill:none;stroke:#888888;stroke-width:3;stroke-miterlimit:10;}
	.st20{fill:none;stroke:#888888;stroke-width:3;stroke-linecap:round;stroke-miterlimit:10;}
	.st21{fill:none;stroke:#888888;stroke-width:6;stroke-linecap:round;stroke-miterlimit:10;}
	.st22{fill:none;stroke:#888888;stroke-width:20;stroke-linecap:round;stroke-miterlimit:10;}
	.st23{fill:#FFFFFF;stroke:#888888;stroke-width:6;stroke-linecap:round;stroke-miterlimit:10;}
	.st24{fill:none;stroke:#888888;stroke-width:8;stroke-linecap:round;stroke-miterlimit:10;}
	.st25{fill:none;stroke:#888888;stroke-width:5;stroke-miterlimit:10;}
</style>
<g>
	<path class="st8" d="M6.3,5.2v1.9H1.1V5.2H6.3 M6.5,4.3H0.9C0.5,4.3,0.2,4.6,0.2,5v2.4C0.2,7.7,0.5,8,0.9,8h5.6
		c0.4,0,0.6-0.3,0.6-0.6V5C7.1,4.6,6.9,4.3,6.5,4.3L6.5,4.3z"/>
	<path class="st8" d="M16,2V4h-5.2V2H16 M16.2,1.2h-5.6c-0.4,0-0.6,0.3-0.6,0.6v2.4c0,0.4,0.3,0.6,0.6,0.6h5.6
		c0.4,0,0.6-0.3,0.6-0.6V1.8C16.8,1.4,16.5,1.2,16.2,1.2L16.2,1.2z"/>
	<path class="st8" d="M18.9,6.7v1.9h-5.2V6.7H18.9 M19.1,5.8h-5.6c-0.4,0-0.6,0.3-0.6,0.6v2.4c0,0.4,0.3,0.6,0.6,0.6h5.6
		c0.4,0,0.6-0.3,0.6-0.6V6.5C19.8,6.1,19.5,5.8,19.1,5.8L19.1,5.8z"/>
	<path class="st8" d="M11.3,10.3v1.9H6.1v-1.9H11.3 M11.5,9.4H5.9c-0.4,0-0.6,0.3-0.6,0.6v2.4c0,0.4,0.3,0.6,0.6,0.6h5.6
		c0.4,0,0.6-0.3,0.6-0.6v-2.4C12.1,9.7,11.9,9.4,11.5,9.4L11.5,9.4z"/>
	<path class="st8" d="M8,15v1.9H2.8V15H8 M8.2,14.1H2.6c-0.4,0-0.6,0.3-0.6,0.6v2.4c0,0.4,0.3,0.6,0.6,0.6h5.6
		c0.4,0,0.6-0.3,0.6-0.6v-2.4C8.9,14.4,8.6,14.1,8.2,14.1L8.2,14.1z"/>
	<path class="st8" d="M16.7,16V18h-5.2V16H16.7 M16.9,15.2h-5.6c-0.4,0-0.6,0.3-0.6,0.6v2.4c0,0.4,0.3,0.6,0.6,0.6h5.6
		c0.4,0,0.6-0.3,0.6-0.6v-2.4C17.6,15.5,17.3,15.2,16.9,15.2L16.9,15.2z"/>
</g>
</svg>
