<?xml version="1.0" encoding="utf-8"?>
<!-- Generator: Adobe Illustrator 19.2.1, SVG Export Plug-In . SVG Version: 6.00 Build 0)  -->
<svg version="1.1" id="Layer_1" xmlns="http://www.w3.org/2000/svg" xmlns:xlink="http://www.w3.org/1999/xlink" x="0px" y="0px"
	 viewBox="0 0 20 20" style="enable-background:new 0 0 20 20;" xml:space="preserve">
<g>
	<g>
		<circle style="fill:#888888;" cx="13" cy="5.7" r="2.2"/>
		<circle style="fill:#888888;" cx="5" cy="12.6" r="2.2"/>
		<circle style="fill:#888888;" cx="15.7" cy="15.8" r="2.2"/>
		<path style="fill:#888888;" d="M16,16.2L4.4,12.7l9-8.1L16,16.2z M5.7,12.4l9.5,2.9L13,5.8L5.7,12.4z"/>
		<g>
			<path style="fill:#888888;" d="M13.1,5.9C13.1,5.9,13,5.9,13.1,5.9c-0.3-0.1-0.4-0.2-0.3-0.4l1.3-5c0-0.2,0.2-0.3,0.4-0.2
				c0.2,0,0.3,0.2,0.2,0.4l-1.3,5C13.4,5.8,13.2,5.9,13.1,5.9z"/>
			<path style="fill:#888888;" d="M18,7.2C18,7.2,18,7.2,18,7.2l-5-1.3c-0.2,0-0.3-0.2-0.2-0.4c0-0.2,0.2-0.3,0.4-0.2l5,1.3
				c0.2,0,0.3,0.2,0.2,0.4C18.3,7.2,18.2,7.2,18,7.2z"/>
			<path style="fill:#888888;" d="M12.8,5.8C12.8,5.8,12.7,5.8,12.8,5.8l-5-1.3c-0.2,0-0.3-0.2-0.2-0.4c0-0.2,0.2-0.3,0.4-0.2l5,1.3
				c0.2,0,0.3,0.2,0.2,0.4C13.1,5.7,12.9,5.8,12.8,5.8z"/>
		</g>
		<g>
			<path style="fill:#888888;" d="M19.2,19.7c-0.1,0-0.2,0-0.2-0.1L15.4,16c-0.1-0.1-0.1-0.3,0-0.5c0.1-0.1,0.3-0.1,0.5,0l3.6,3.6
				c0.1,0.1,0.1,0.3,0,0.5C19.4,19.7,19.3,19.7,19.2,19.7z"/>
			<path style="fill:#888888;" d="M12,19.7c-0.1,0-0.2,0-0.2-0.1c-0.1-0.1-0.1-0.3,0-0.5l3.6-3.6c0.1-0.1,0.3-0.1,0.5,0
				c0.1,0.1,0.1,0.3,0,0.5l-3.6,3.6C12.1,19.7,12,19.7,12,19.7z"/>
			<path style="fill:#888888;" d="M15.8,15.9c-0.1,0-0.2,0-0.2-0.1c-0.1-0.1-0.1-0.3,0-0.5l3.6-3.6c0.1-0.1,0.3-0.1,0.5,0
				c0.1,0.1,0.1,0.3,0,0.5L16,15.8C16,15.8,15.9,15.9,15.8,15.9z"/>
		</g>
		<g>
			<path style="fill:#888888;" d="M0.6,15.4c-0.1,0-0.2-0.1-0.3-0.2c-0.1-0.2,0-0.4,0.1-0.4l4.4-2.6c0.2-0.1,0.4,0,0.4,0.1
				c0.1,0.2,0,0.4-0.1,0.4l-4.4,2.6C0.7,15.4,0.6,15.4,0.6,15.4z"/>
			<path style="fill:#888888;" d="M5,12.9c-0.1,0-0.2-0.1-0.3-0.2L2.2,8.3c-0.1-0.2,0-0.4,0.1-0.4c0.2-0.1,0.4,0,0.4,0.1l2.6,4.4
				c0.1,0.2,0,0.4-0.1,0.4C5.1,12.9,5.1,12.9,5,12.9z"/>
			<path style="fill:#888888;" d="M7.7,17.6c-0.1,0-0.2-0.1-0.3-0.2L4.9,13c-0.1-0.2,0-0.4,0.1-0.4c0.2-0.1,0.4,0,0.4,0.1L8,17.1
				c0.1,0.2,0,0.4-0.1,0.4C7.8,17.6,7.8,17.6,7.7,17.6z"/>
		</g>
	</g>
</g>
</svg>
